    <svg
      xmlns="http://www.w3.org/2000/svg"
      width="1122.52"
      height="793.707"
      viewBox="0 0 1122.52 793.707"
    >
      <defs>
        <clipPath id="a" clipPathUnits="userSpaceOnUse">
          <path d="M0 595.28h841.89V0H0Z" />
        </clipPath>
      </defs>
      <g clipPath="url(#a)" transform="matrix(1.33333 0 0 -1.33333 0 793.707)">
        <path d="M498.401 442.385c-.004.053-.003.111-.008.164-.33 3.655-2.354 5.292-6.067 4.911-1.637-.168-2.982-.819-4.055-1.918 1.06.961 2.351 1.537 3.896 1.695 3.755.386 5.827-1.24 6.234-4.852" />
        <path d="M484.257 433.63c.847 4.39 1.661 7.541 2.445 9.458.184.452.366.814.547 1.128l-.123.023c.341.502.73.925 1.145 1.303 1.073 1.1 2.418 1.75 4.055 1.918 3.713.381 5.736-1.256 6.067-4.91.005-.054.003-.112.008-.165.01-.078.028-.143.035-.223l-.025.005a22.18 22.18 0 0 0-.04-3.404 32.305 32.305 0 0 0-.486-3.469l-1.309-6.736c-1.657-8.44-5.475-12.966-11.452-13.58-.997-.103-2.466-.032-4.406.213zm-70.255 37.861-33.372-3.33-.517-2.72 8.33.84-2.825-14.269-9.767-49.327c-1.888-8.842-14.1-19.47-20.475-20.114-3.375-.34-5.224 1.223-5.545 4.701-.138 1.491.041 3.507.572 6.028l2.643 13.382.877 4.443 4.295 21.74 9.978 1.005.518 2.72-9.958-1.005 2.641 13.4-24.873-2.48-2.642-13.402-9.043-.902-.519-2.72 9.024.901-7.736-39.167c-.829-4.175-1.15-7.252-.967-9.234.34-3.657 2-6.468 4.984-8.435 2.838-1.89 6.2-2.64 10.088-2.249 2.32.234 4.538.787 6.664 1.623 6 2.357 12.442 6.138 17.808 10.71 4 3.407 6.638 5.58 10.02 10.738l-3.615-18.249 25.1 2.531 4.581 23.143c1.663 8.303 4.287 15.301 7.876 20.996 4.936 7.79 9.14 11.858 12.615 12.208 2.038.205 3.146-.638 3.32-2.53.152-1.629-.114-3.654-.795-6.077l-6.467-23.516c-1.29-4.848-1.832-8.37-1.628-10.576.38-4.1 2.017-7.162 4.914-9.18 2.895-2.023 6.542-2.812 10.94-2.368 2.666.27 5.157.947 7.483 2.005 7.051 3.208 13.153 8.608 18.31 16.195 1.965-4.11 5.102-7.355 9.434-9.716 5.145-2.807 11.497-3.82 19.06-3.043 10.958 1.124 19.533 4.945 29.55 16.01l-1.51 1.406c-6.068-7.187-16.235-13.27-24.43-14.113-6.522-.669-10.055 2.012-10.602 8.048-.235 2.598-.04 5.466.592 8.596l1.327 6.54c6.564.183 11.001.397 13.311.633 7.425.764 13.525 2.812 18.294 6.146 5.893 4.073 8.535 9.457 7.93 16.153-.5 5.505-3.579 9.48-9.239 11.923-2.628 1.11-5.497 1.79-8.587 2.074-2.388.22-4.906.207-7.57-.067a57.981 57.981 0 0 1-7.697-1.303c-10.834-2.616-19.322-8.315-25.46-17.106-5.219-7.472-7.46-15.26-6.725-23.365.184-2.03.56-3.92 1.103-5.685l-.012-.009s.02-.039.04-.1c.008-.026.012-.053.02-.078.054-.238.071-.72-.33-1.466-.3-.463-.594-.926-.916-1.384-3.547-5.035-8.337-9.552-11.685-9.888-1.185-.119-2.092.037-2.883.31-.85.292-1.366.917-1.462 1.96-.062.662.152 1.905.636 3.732l6.618 24.61c1.492 5.573 2.111 9.75 1.853 12.523-.363 3.921-2.084 6.861-5.164 8.815-2.837 1.85-6.362 2.561-10.577 2.134-10.652-1.073-20.044-9.198-28.176-24.37l7.056 35.636z" />
        <path d="M488.271 445.542a7.281 7.281 0 0 1-1.145-1.303l.123-.022c.066.114.133.245.2.342.25.368.53.684.822.983M498.437 442.162c-.007.08-.027.145-.035.223.005-.07.005-.147.01-.218ZM286.711 243.758c-11.196 9.08-24.555 13.35-37.601 17.525-3.521 1.112-7.187 2.174-10.758 3.176l-.591.16c-4.424 1.26-8.895 2.565-13.312 4.05-5.935 2.039-8.282 5.102-7.852 10.299.423 5.771 5.305 8.027 9.308 8.918 11.127 2.425 21.804.27 31.738-6.447 1.764-1.197 3.335-2.563 5.036-4.012l2.839-2.345 30.768 26.381-1.164 1.505c-12.881 16.453-35.835 26.262-61.29 26.262-15.769 0-30.168-3.843-40.672-10.78-14.087-9.303-22.44-24.719-22.396-41.316.123-16.325 8.124-30.809 21.976-39.74 7.313-4.736 15.796-7.915 23.948-10.989l4.166-1.593c4.761-1.84 9.722-3.387 14.499-4.89l.559-.186c4.272-1.354 9.094-2.87 13.68-4.561 3.568-1.31 7.645-4.192 6.915-10.275-.561-4.46-3.347-7.239-8.611-8.552-4.087-.99-9.336-1.549-14.734-1.549-1.257 0-2.433.03-3.566.138-13.913 1.101-25.882 7.313-35.52 18.423l-1.303 1.503L160.54 187.3l1.098-1.48c6.905-9.277 14.874-16.21 24.391-21.231 14.571-7.68 30.407-11.59 47.133-11.59 9.461 0 19.425 1.239 29.653 3.663 25.012 5.954 39.301 23.529 40.177 49.489.576 15.68-4.917 28.335-16.281 37.608M650.109 212.132l-1.386-1.346c-8-7.695-18.57-11.925-29.664-11.925-23.652 0-42.981 19.277-42.981 42.966 0 23.67 19.329 42.91 42.98 42.91 11.096 0 21.666-4.2 29.665-11.864l1.386-1.375 31.24 32.674-1.392 1.35c-16.51 15.728-38.113 24.404-60.898 24.404-48.588 0-88.137-39.512-88.137-88.098 0-48.593 39.549-88.136 88.137-88.136 22.785 0 44.436 8.676 60.898 24.443l1.392 1.352zM507.242 237.356l-.136.961c-3.464 25.28-7.058 51.368-10.66 79.816l-1.384 10.716-6.838-8.329c-18.411-22.22-33.474-39.97-49.677-59.075l-2.291-2.725c-5.465-6.439-11.136-13.115-17.165-20.267-10.625 12.704-20.374 24.137-29.82 35.207l-.383.465c-12.134 14.257-24.696 28.993-39.056 46.34l-6.844 8.361-1.375-10.746c-3.593-28.673-7.23-54.927-10.794-80.568l-.285-2.236c-3.34-24.385-6.823-49.576-10.25-76.626l-.645-5.23h43.052l.548 4.071c1.544 12.302 3.15 24.178 4.674 35.734l.47 3.722c1.292 9.783 2.657 19.823 4.016 30.298 8.118-9.933 15.498-18.72 23.189-27.899l.585-.719c6.078-7.31 12.424-14.862 19.28-23.166l3.58-4.385 3.626 4.4a4144.414 4144.414 0 0 0 23.275 28.076c6.286 7.567 12.794 15.313 19.752 23.762 1.273-10.1 2.587-19.816 3.864-29.275l.153-1.243c1.71-12.69 3.452-25.829 5.156-39.305l.55-4.112h43.042l-.664 5.271c-3.531 27.82-7.074 53.72-10.545 78.706" />
      </g>
    </svg>